<svg width="155" height="156" viewBox="0 0 155 156" fill="none" xmlns="http://www.w3.org/2000/svg">
<g clip-path="url(#clip0_1411_353)">
<rect width="155" height="156" rx="30" fill="#783B54"/>
<path d="M33.8316 127.9C35.2316 116.2 35.9316 99.55 35.9316 77.95C35.9316 56.35 35.0816 40.75 33.3816 31.15C35.9816 30.15 38.1816 29.65 39.9816 29.65C41.8816 29.65 44.2316 29.75 47.0316 29.95C48.7316 39.15 58.8316 61 77.3316 95.5C92.4316 66 101.282 44.55 103.882 31.15C106.482 30.15 109.082 29.65 111.682 29.65C114.282 29.65 116.982 29.75 119.782 29.95C118.382 41.05 117.682 58.6 117.682 82.6C117.682 106.6 118.532 121.3 120.232 126.7C116.932 127.7 114.282 128.2 112.282 128.2C110.382 128.2 107.732 128.1 104.332 127.9C105.732 116.2 106.432 102.6 106.432 87.1C106.432 71.6 106.332 61.6 106.132 57.1C93.0316 83.6 84.7816 101.05 81.3816 109.45C78.6816 110.25 76.5316 110.65 74.9316 110.65C73.3316 110.65 71.8316 110.6 70.4316 110.5C67.5316 103.1 64.3316 96.2 60.8316 89.8C57.4316 83.4 54.1816 77.45 51.0816 71.95C48.0816 66.45 46.0316 62.65 44.9316 60.55V76.3C44.9316 104.5 45.7816 121.3 47.4816 126.7C44.4816 127.7 42.2816 128.2 40.8816 128.2C39.5816 128.2 37.2316 128.1 33.8316 127.9Z" fill="#F7C8DC"/>
</g>
<defs>
<clipPath id="clip0_1411_353">
<rect width="155" height="156" rx="30" fill="white"/>
</clipPath>
</defs>
</svg>
