<svg width="87" height="87" viewBox="0 0 87 87" fill="none" xmlns="http://www.w3.org/2000/svg">
<path d="M87 82.356C87 83.5876 86.4908 84.7689 85.5844 85.6398C84.6779 86.5107 83.4485 87 82.1667 87H4.83333C3.55145 87 2.32208 86.5107 1.41565 85.6398C0.509226 84.7689 1.16343e-06 83.5876 1.16343e-06 82.356V33.5471C-0.000509838 32.8394 0.167316 32.141 0.490661 31.5051C0.814005 30.8693 1.28431 30.3128 1.86567 29.8783L40.5323 0.978471C41.3808 0.344307 42.4251 0 43.5 0C44.5749 0 45.6192 0.344307 46.4677 0.978471L85.1343 29.8783C85.7157 30.3128 86.186 30.8693 86.5093 31.5051C86.8327 32.141 87.0005 32.8394 87 33.5471V82.356ZM75.3333 77.7119C76.4379 77.7119 77.3333 76.8165 77.3333 75.7119V36.8156C77.3333 36.1849 77.0358 35.5911 76.5305 35.2135L44.6972 11.4259C43.9872 10.8953 43.0128 10.8953 42.3028 11.4259L10.4695 35.2135C9.96422 35.5911 9.66667 36.1849 9.66667 36.8156V75.7119C9.66667 76.8165 10.5621 77.7119 11.6667 77.7119H75.3333Z" fill="#F7C8DC"/>
<path d="M87 82.356C87 83.5876 86.4908 84.7689 85.5844 85.6398C84.6779 86.5107 83.4485 87 82.1667 87H4.83333C3.55145 87 2.32208 86.5107 1.41565 85.6398C0.509226 84.7689 1.16343e-06 83.5876 1.16343e-06 82.356V33.5471C-0.000509838 32.8394 0.167316 32.141 0.490661 31.5051C0.814005 30.8693 1.28431 30.3128 1.86567 29.8783L40.5323 0.978471C41.3808 0.344307 42.4251 0 43.5 0C44.5749 0 45.6192 0.344307 46.4677 0.978471L85.1343 29.8783C85.7157 30.3128 86.186 30.8693 86.5093 31.5051C86.8327 32.141 87.0005 32.8394 87 33.5471V82.356ZM75.3333 77.7119C76.4379 77.7119 77.3333 76.8165 77.3333 75.7119V36.8156C77.3333 36.1849 77.0358 35.5911 76.5305 35.2135L44.6972 11.4259C43.9872 10.8953 43.0128 10.8953 42.3028 11.4259L10.4695 35.2135C9.96422 35.5911 9.66667 36.1849 9.66667 36.8156V75.7119C9.66667 76.8165 10.5621 77.7119 11.6667 77.7119H75.3333Z" fill="#783B54"/>
</svg>
