<svg width="1432" height="796" viewBox="0 0 1432 796" fill="none" xmlns="http://www.w3.org/2000/svg">
<rect x="7" y="7" width="1418" height="782" rx="107" fill="#FEFCF5"/>
<rect x="7" y="7" width="1418" height="782" rx="107" stroke="#783B54" stroke-width="14"/>
<path d="M69 439L1353 439.004" stroke="#B8889C" stroke-width="14" stroke-linecap="round"/>
<path d="M79 602L1363 602.004" stroke="#B8889C" stroke-width="14" stroke-linecap="round"/>
<path d="M464.768 203.9C466.168 192.2 466.868 175.55 466.868 153.95C466.868 132.35 466.018 116.75 464.318 107.15C466.918 106.15 469.118 105.65 470.918 105.65C472.818 105.65 475.168 105.75 477.968 105.95C479.868 113.15 485.318 124.1 494.318 138.8C503.418 153.4 512.868 167.55 522.668 181.25C522.968 172.85 523.118 164.75 523.118 156.95C523.118 133.35 522.268 116.75 520.568 107.15C523.168 106.15 525.368 105.65 527.168 105.65C529.068 105.65 531.418 105.75 534.218 105.95C532.818 117.05 532.118 134.6 532.118 158.6C532.118 182.6 532.968 197.3 534.668 202.7C531.668 203.7 529.468 204.2 528.068 204.2C526.768 204.2 524.418 204.1 521.018 203.9C520.318 200.8 517.368 195.2 512.168 187.1C506.968 178.9 500.468 169.15 492.668 157.85C484.968 146.55 479.418 138.1 476.018 132.5C475.918 136.8 475.868 143.4 475.868 152.3C475.868 180.5 476.718 197.3 478.418 202.7C475.418 203.7 473.218 204.2 471.818 204.2C470.518 204.2 468.168 204.1 464.768 203.9ZM551.526 167.45C551.526 143.35 560.926 131.3 579.726 131.3C598.526 131.3 607.926 143.35 607.926 167.45C607.926 178.55 606.176 187.35 602.676 193.85C598.676 201.45 591.026 205.25 579.726 205.25C568.426 205.25 560.776 201.45 556.776 193.85C553.276 187.35 551.526 178.55 551.526 167.45ZM563.826 167.15C563.826 185.35 569.126 194.45 579.726 194.45C590.326 194.45 595.626 185.35 595.626 167.15C595.626 148.85 590.326 139.7 579.726 139.7C569.126 139.7 563.826 148.85 563.826 167.15ZM622.899 178.7C622.899 178.7 622.999 167.55 623.199 145.25C623.199 143.75 623.149 142.6 623.049 141.8C618.849 141.8 615.849 141.85 614.049 141.95C613.449 140.35 613.149 138.8 613.149 137.3C613.149 135.7 613.249 134.5 613.449 133.7H622.599L621.849 122.6C624.349 121.8 626.949 121.4 629.649 121.4C632.449 121.4 634.749 121.6 636.549 122L635.199 133.55C640.699 133.45 646.249 133.15 651.849 132.65C652.449 133.95 652.749 135.4 652.749 137C652.749 138.5 652.549 140.35 652.149 142.55C648.449 142.35 642.599 142.15 634.599 141.95C634.399 143.95 634.299 146.9 634.299 150.8V181.25C634.299 183.85 634.399 186 634.599 187.7C634.899 189.3 635.549 190.8 636.549 192.2C637.649 193.5 639.199 194.15 641.199 194.15C645.599 194.15 649.799 192.6 653.799 189.5C655.899 192.5 656.949 196.55 656.949 201.65C651.449 204.05 646.649 205.25 642.549 205.25C638.549 205.25 635.349 204.7 632.949 203.6C630.549 202.6 628.699 201.4 627.399 200C626.099 198.5 625.099 196.45 624.399 193.85C623.399 190.15 622.899 185.1 622.899 178.7ZM712.846 166.1C705.346 168.5 697.846 169.7 690.346 169.7C682.946 169.7 677.396 169.45 673.696 168.95C673.696 177.95 675.146 184.5 678.046 188.6C680.746 192.5 684.946 194.45 690.646 194.45C696.346 194.45 702.546 191.35 709.246 185.15C712.146 188.15 713.996 192.1 714.796 197C706.696 202.5 698.246 205.25 689.446 205.25C678.946 205.25 671.646 201.85 667.546 195.05C663.446 188.15 661.396 179.05 661.396 167.75C661.396 156.45 663.646 147.55 668.146 141.05C672.746 134.55 680.196 131.3 690.496 131.3C697.696 131.3 703.446 133.5 707.746 137.9C712.146 142.2 714.346 147.35 714.346 153.35C714.446 159.25 713.946 163.5 712.846 166.1ZM689.446 139.7C680.246 139.7 675.046 146.55 673.846 160.25C678.146 160.75 682.996 161 688.396 161C693.896 161 698.196 160.5 701.296 159.5C701.696 155.9 701.896 154.05 701.896 153.95C701.896 150.05 700.896 146.7 698.896 143.9C696.896 141.1 693.746 139.7 689.446 139.7ZM773.471 184.1C773.471 191.2 771.171 196.5 766.571 200C761.971 203.5 756.221 205.25 749.321 205.25C739.721 205.25 731.321 202.5 724.121 197C724.521 194.8 725.271 192.65 726.371 190.55C727.571 188.35 728.621 186.7 729.521 185.6L731.021 184.1C736.221 191.5 742.421 195.2 749.621 195.2C753.121 195.2 755.971 194.45 758.171 192.95C760.471 191.45 761.621 189.4 761.621 186.8C761.621 184.1 760.371 181.7 757.871 179.6C755.471 177.5 752.521 175.75 749.021 174.35C745.521 172.85 742.021 171.3 738.521 169.7C735.021 168 732.021 165.6 729.521 162.5C727.121 159.4 725.921 155.7 725.921 151.4C725.921 145.2 727.921 140.3 731.921 136.7C735.921 133.1 741.921 131.3 749.921 131.3C758.021 131.3 763.821 133.05 767.321 136.55C770.921 140.05 772.721 145.55 772.721 153.05C770.521 153.85 768.471 154.25 766.571 154.25C764.671 154.25 762.321 153.95 759.521 153.35C759.721 151.95 759.821 150.85 759.821 150.05C759.821 146.95 758.921 144.4 757.121 142.4C755.321 140.3 752.721 139.25 749.321 139.25C746.021 139.25 743.271 140.05 741.071 141.65C738.871 143.15 737.771 145.5 737.771 148.7C737.771 151.8 738.971 154.5 741.371 156.8C743.871 159.1 746.871 161 750.371 162.5C753.871 163.9 757.371 165.4 760.871 167C764.371 168.5 767.321 170.7 769.721 173.6C772.221 176.4 773.471 179.9 773.471 184.1ZM785.369 201.35C786.869 187.75 787.619 172.6 787.619 155.9C787.619 139.1 787.419 127.35 787.019 120.65C786.719 113.95 786.019 107.8 784.919 102.2C787.519 101.2 790.119 100.7 792.719 100.7C795.319 100.7 798.019 100.8 800.819 101C799.319 113.8 798.569 127.3 798.569 141.5C805.569 134.7 812.569 131.3 819.569 131.3C826.669 131.3 832.069 134.15 835.769 139.85C839.569 145.55 841.469 153.7 841.469 164.3C841.469 178.4 839.019 188.75 834.119 195.35C829.319 201.95 821.719 205.25 811.319 205.25C804.819 205.25 796.169 203.95 785.369 201.35ZM828.719 162.35C828.719 148.05 824.469 140.9 815.969 140.9C810.069 140.9 804.269 144.15 798.569 150.65V191C803.269 193.3 808.119 194.45 813.119 194.45C823.519 194.45 828.719 183.75 828.719 162.35ZM852.786 167.45C852.786 143.35 862.186 131.3 880.986 131.3C899.786 131.3 909.186 143.35 909.186 167.45C909.186 178.55 907.436 187.35 903.936 193.85C899.936 201.45 892.286 205.25 880.986 205.25C869.686 205.25 862.036 201.45 858.036 193.85C854.536 187.35 852.786 178.55 852.786 167.45ZM865.086 167.15C865.086 185.35 870.386 194.45 880.986 194.45C891.586 194.45 896.886 185.35 896.886 167.15C896.886 148.85 891.586 139.7 880.986 139.7C870.386 139.7 865.086 148.85 865.086 167.15ZM945.909 131.3C950.909 131.3 955.259 132.1 958.959 133.7V131.3C958.959 127.3 959.759 124.3 961.359 122.3C963.059 120.3 965.959 119.3 970.059 119.3C970.759 119.3 972.009 119.4 973.809 119.6C974.009 121.2 974.109 122.85 974.109 124.55C974.109 126.15 973.809 128.55 973.209 131.75C972.509 131.65 971.409 131.6 969.909 131.6C968.409 131.6 967.309 132.1 966.609 133.1C965.909 134 965.509 135.55 965.409 137.75L964.809 137.6C969.109 141.9 971.259 148.3 971.259 156.8C971.259 164.6 969.709 171.1 966.609 176.3C963.109 182.1 956.209 185 945.909 185C941.609 185 938.109 184.5 935.409 183.5C933.309 187.2 931.759 191.25 930.759 195.65C932.459 195.95 934.259 196.1 936.159 196.1C938.059 196.1 941.859 195.75 947.559 195.05C953.259 194.35 957.359 194 959.859 194C965.059 194 969.259 195.3 972.459 197.9C975.659 200.5 977.259 204.5 977.259 209.9C977.259 215.3 975.509 220 972.009 224C965.909 231 956.409 234.5 943.509 234.5C934.809 234.5 928.159 233.4 923.559 231.2C918.959 229 916.659 224.9 916.659 218.9C916.659 217.3 916.759 215.95 916.959 214.85C919.059 214.05 921.209 213.65 923.409 213.65C925.709 213.65 928.159 213.85 930.759 214.25C930.559 215.05 930.459 216.35 930.459 218.15C930.459 220.05 931.609 221.85 933.909 223.55C936.209 225.35 940.109 226.25 945.609 226.25C951.109 226.25 955.809 225.15 959.709 222.95C963.709 220.75 965.709 217.45 965.709 213.05C965.709 208.15 963.059 205.7 957.759 205.7C955.159 205.7 951.059 206 945.459 206.6C939.859 207.3 935.409 207.65 932.109 207.65C928.909 207.65 926.209 206.95 924.009 205.55C921.909 204.25 920.859 202.2 920.859 199.4C920.859 194.1 923.409 187.6 928.509 179.9C923.209 175.6 920.559 167.9 920.559 156.8C920.559 139.8 929.009 131.3 945.909 131.3ZM932.709 156.95C932.709 168.75 937.109 174.65 945.909 174.65C954.709 174.65 959.109 168.75 959.109 156.95C959.109 145.15 954.709 139.25 945.909 139.25C937.109 139.25 932.709 145.15 932.709 156.95Z" fill="black"/>
<path d="M210.991 335.1C213.391 335.1 214.941 336.85 215.641 340.35C216.141 356.65 216.391 374.45 216.391 393.75C216.391 412.95 216.291 424.05 216.091 427.05C215.891 430.05 215.241 432.15 214.141 433.35C213.041 434.55 211.041 435.15 208.141 435.15C205.541 435.15 204.241 433.55 204.241 430.35V396.45C204.241 390.95 204.141 385.3 203.941 379.5C203.741 373.7 203.641 370.05 203.641 368.55C200.241 374.35 195.741 379.15 190.141 382.95C184.541 386.65 178.291 388.5 171.391 388.5C164.491 388.5 158.691 385.65 153.991 379.95C153.791 386.05 153.691 393.3 153.691 401.7C153.691 410 153.741 418.75 153.841 427.95C153.841 430.45 152.991 432.3 151.291 433.5C149.691 434.6 147.841 435.15 145.741 435.15C143.041 435.15 141.691 433.5 141.691 430.2C141.791 421.2 141.841 406.95 141.841 387.45V344.85C141.841 343.15 142.391 341.5 143.491 339.9C144.691 338.3 146.041 337.5 147.541 337.5C149.141 337.5 150.591 337.95 151.891 338.85C153.191 339.65 153.891 340.9 153.991 342.6C154.391 353.7 156.191 361.95 159.391 367.35C162.591 372.75 166.391 375.45 170.791 375.45C175.191 375.45 178.941 374.75 182.041 373.35C185.241 371.85 187.841 370.15 189.841 368.25C191.941 366.35 193.941 363.65 195.841 360.15C198.541 355.15 201.141 349 203.641 341.7C205.141 337.3 207.591 335.1 210.991 335.1ZM243.35 340.2C245.15 340.2 246.85 341.05 248.45 342.75C250.05 344.45 250.85 346.25 250.85 348.15C250.85 349.95 249.95 351.8 248.15 353.7C246.45 355.6 244.65 356.55 242.75 356.55C240.85 356.55 239.1 355.75 237.5 354.15C236 352.55 235.25 350.5 235.25 348C235.25 343.2 237.85 340.6 243.05 340.2C243.15 340.2 243.25 340.2 243.35 340.2ZM249.65 418.8L249.8 429.3C249.8 431.2 249.05 432.8 247.55 434.1C246.05 435.3 244.45 435.9 242.75 435.9C240.25 435.9 238.95 434.65 238.85 432.15C237.55 400.25 236.9 382.6 236.9 379.2C236.9 375.8 237.05 371.65 237.35 366.75C237.55 364.95 238.7 364.05 240.8 364.05C246.1 364.05 249.1 366.2 249.8 370.5C250.1 372.7 250.25 374.45 250.25 375.75L249.65 385.2V418.8ZM319.945 364.2C321.345 364.2 322.395 364.7 323.095 365.7C323.795 366.6 324.145 367.6 324.145 368.7L323.995 370.2C319.795 380.9 316.695 389.6 314.695 396.3C313.395 401 312.395 404.5 311.695 406.8C311.095 409.1 310.045 413.15 308.545 418.95C307.045 424.75 306.045 428.5 305.545 430.2C304.145 433.6 301.695 435.3 298.195 435.3C296.495 435.3 295.295 434.2 294.595 432C291.395 422 286.695 410.7 280.495 398.1C274.295 385.5 270.745 378.3 269.845 376.5C269.045 374.6 268.645 372.9 268.645 371.4C268.645 369.9 269.295 368.45 270.595 367.05C271.995 365.65 273.545 364.95 275.245 364.95C276.945 364.95 278.395 365.85 279.595 367.65C280.695 369.85 283.795 376 288.895 386.1C294.095 396.2 297.745 404.15 299.845 409.95C299.945 409.35 300.295 408.1 300.895 406.2C305.995 388.5 310.145 375.85 313.345 368.25C315.045 365.55 317.245 364.2 319.945 364.2ZM338.604 384C338.604 378.1 340.704 373.4 344.904 369.9C349.104 366.4 353.954 364.65 359.454 364.65C365.054 364.65 370.404 365.65 375.504 367.65C380.604 369.65 383.154 372.3 383.154 375.6C383.154 377.3 382.504 378.65 381.204 379.65C379.904 380.65 378.754 381.15 377.754 381.15C376.854 381.15 376.104 381.15 375.504 381.15C375.004 381.05 373.004 380.1 369.504 378.3C366.104 376.5 362.954 375.6 360.054 375.6C357.154 375.6 354.654 376.35 352.554 377.85C350.554 379.25 349.554 381.35 349.554 384.15C349.554 386.95 350.704 389.15 353.004 390.75C355.404 392.35 359.554 393.75 365.454 394.95C371.354 396.05 375.854 397.65 378.954 399.75C382.154 401.85 383.754 405.75 383.754 411.45C383.754 419.75 381.554 425.65 377.154 429.15C372.854 432.55 367.604 434.25 361.404 434.25C355.204 434.25 349.904 433.4 345.504 431.7C341.204 430 339.054 427.45 339.054 424.05C339.054 420.15 341.004 418.2 344.904 418.2C345.904 418.2 348.104 418.9 351.504 420.3C354.904 421.7 358.254 422.4 361.554 422.4C364.954 422.4 367.504 421.35 369.204 419.25C371.004 417.05 371.904 414.55 371.904 411.75C371.904 408.95 370.754 406.95 368.454 405.75C366.154 404.45 362.654 403.4 357.954 402.6C353.254 401.8 349.804 400.95 347.604 400.05C341.604 397.65 338.604 392.3 338.604 384ZM439.889 384C439.889 378.1 441.989 373.4 446.189 369.9C450.389 366.4 455.239 364.65 460.739 364.65C466.339 364.65 471.689 365.65 476.789 367.65C481.889 369.65 484.439 372.3 484.439 375.6C484.439 377.3 483.789 378.65 482.489 379.65C481.189 380.65 480.039 381.15 479.039 381.15C478.139 381.15 477.389 381.15 476.789 381.15C476.289 381.05 474.289 380.1 470.789 378.3C467.389 376.5 464.239 375.6 461.339 375.6C458.439 375.6 455.939 376.35 453.839 377.85C451.839 379.25 450.839 381.35 450.839 384.15C450.839 386.95 451.989 389.15 454.289 390.75C456.689 392.35 460.839 393.75 466.739 394.95C472.639 396.05 477.139 397.65 480.239 399.75C483.439 401.85 485.039 405.75 485.039 411.45C485.039 419.75 482.839 425.65 478.439 429.15C474.139 432.55 468.889 434.25 462.689 434.25C456.489 434.25 451.189 433.4 446.789 431.7C442.489 430 440.339 427.45 440.339 424.05C440.339 420.15 442.289 418.2 446.189 418.2C447.189 418.2 449.389 418.9 452.789 420.3C456.189 421.7 459.539 422.4 462.839 422.4C466.239 422.4 468.789 421.35 470.489 419.25C472.289 417.05 473.189 414.55 473.189 411.75C473.189 408.95 472.039 406.95 469.739 405.75C467.439 404.45 463.939 403.4 459.239 402.6C454.539 401.8 451.089 400.95 448.889 400.05C442.889 397.65 439.889 392.3 439.889 384ZM503.304 364.95L510.804 365.1C512.504 365.1 513.454 365.05 513.654 364.95V334.2C513.754 332.5 514.604 331.05 516.204 329.85C517.804 328.65 519.304 328.05 520.704 328.05C522.104 328.05 523.204 328.5 524.004 329.4C524.904 330.3 525.304 331.7 525.204 333.6C525.104 335.5 525.054 345.9 525.054 364.8L542.604 364.2C545.604 364.2 547.104 365.95 547.104 369.45C547.104 372.05 546.304 374 544.704 375.3C543.204 376.6 541.554 377.3 539.754 377.4C538.054 377.5 536.354 377.55 534.654 377.55L525.504 377.4C525.504 381.5 525.904 389.6 526.704 401.7C527.604 413.8 528.304 421.65 528.804 425.25C529.304 428.75 529.404 431.05 529.104 432.15C528.804 433.15 528.254 433.85 527.454 434.25C526.154 434.85 524.404 435.15 522.204 435.15C520.004 435.15 518.704 433.95 518.304 431.55C516.304 418.45 514.954 400.45 514.254 377.55C513.354 377.65 509.904 377.7 503.904 377.7C497.904 377.7 494.904 375.95 494.904 372.45C494.904 367.45 497.704 364.95 503.304 364.95ZM555.316 370.8C555.716 369.1 556.566 367.7 557.866 366.6C559.166 365.4 560.466 364.8 561.766 364.8C563.166 364.8 564.216 365.05 564.916 365.55C565.716 366.05 566.166 366.5 566.266 366.9C566.466 367.3 566.666 368 566.866 369C566.266 376.8 565.966 383.85 565.966 390.15C565.966 396.35 566.716 403.5 568.216 411.6C569.716 419.6 571.366 423.6 573.166 423.6C575.866 423.6 579.266 422.1 583.366 419.1C587.566 416.1 590.566 412.95 592.366 409.65C591.166 395.25 590.566 382.9 590.566 372.6C590.566 370.5 591.216 368.7 592.516 367.2C593.916 365.7 595.566 364.95 597.466 364.95C600.566 364.95 602.116 367.05 602.116 371.25C602.116 378.35 602.616 388.9 603.616 402.9C604.716 416.9 605.816 425.8 606.916 429.6C607.116 430.4 607.216 431.35 607.216 432.45C607.216 433.45 606.516 434.4 605.116 435.3C603.816 436.3 602.066 436.8 599.866 436.8C597.766 436.8 596.366 435.6 595.666 433.2C595.466 431.2 594.966 428.2 594.166 424.2C587.166 431.5 580.116 435.15 573.016 435.15C569.716 435.15 566.766 433.9 564.166 431.4C561.566 428.9 559.516 425.5 558.016 421.2C555.416 412.9 554.116 405.1 554.116 397.8C554.116 390.5 554.516 381.5 555.316 370.8ZM656.025 364.8L655.875 335.85C655.875 330.45 657.575 327.75 660.975 327.75C664.475 327.75 666.425 329.25 666.825 332.25C667.025 333.55 667.275 341.4 667.575 355.8C667.875 370.2 668.325 383.7 668.925 396.3C669.625 408.9 669.975 420.65 669.975 431.55C669.975 434.55 667.725 436.05 663.225 436.05C660.225 436.05 658.725 433.95 658.725 429.75C654.425 433.15 649.325 434.85 643.425 434.85C635.925 434.85 629.825 432.05 625.125 426.45C620.525 420.85 618.225 413.95 618.225 405.75C618.225 397.55 619.875 389.9 623.175 382.8C626.575 375.6 631.825 370.45 638.925 367.35C643.325 365.45 647.575 364.5 651.675 364.5C653.175 364.5 654.625 364.6 656.025 364.8ZM656.775 385.35C656.075 383.15 655.225 381.5 654.225 380.4C653.225 379.2 652.125 378.5 650.925 378.3C649.825 378 648.475 377.85 646.875 377.85C645.275 377.85 643.325 378.45 641.025 379.65C638.725 380.85 636.775 382.8 635.175 385.5C631.975 390.9 630.375 396.6 630.375 402.6C630.375 408.5 631.525 413.35 633.825 417.15C636.225 420.85 639.575 422.7 643.875 422.7C648.275 422.7 651.725 420.55 654.225 416.25C656.725 411.95 657.975 406.45 657.975 399.75C657.975 392.25 657.575 387.45 656.775 385.35ZM693.022 340.2C694.822 340.2 696.522 341.05 698.122 342.75C699.722 344.45 700.522 346.25 700.522 348.15C700.522 349.95 699.622 351.8 697.822 353.7C696.122 355.6 694.322 356.55 692.422 356.55C690.522 356.55 688.772 355.75 687.172 354.15C685.672 352.55 684.922 350.5 684.922 348C684.922 343.2 687.522 340.6 692.722 340.2C692.822 340.2 692.922 340.2 693.022 340.2ZM699.322 418.8L699.472 429.3C699.472 431.2 698.722 432.8 697.222 434.1C695.722 435.3 694.122 435.9 692.422 435.9C689.922 435.9 688.622 434.65 688.522 432.15C687.222 400.25 686.572 382.6 686.572 379.2C686.572 375.8 686.722 371.65 687.022 366.75C687.222 364.95 688.372 364.05 690.472 364.05C695.772 364.05 698.772 366.2 699.472 370.5C699.772 372.7 699.922 374.45 699.922 375.75L699.322 385.2V418.8ZM742.767 365.55C748.067 365.55 753.117 367.1 757.917 370.2C762.717 373.3 765.117 377.15 765.117 381.75C765.117 386.25 763.167 390.65 759.267 394.95C755.367 399.15 750.167 401.7 743.667 402.6C740.867 403 736.667 403.2 731.067 403.2C732.167 411.7 734.317 417.3 737.517 420C738.517 421.1 739.867 421.65 741.567 421.65C747.767 421.65 752.967 419.7 757.167 415.8C761.367 411.8 764.367 409.8 766.167 409.8C766.967 409.8 768.167 410.55 769.767 412.05C771.367 413.55 772.167 414.95 772.167 416.25C772.167 418.85 769.017 422.6 762.717 427.5C759.917 429.8 756.517 431.75 752.517 433.35C748.617 434.85 744.967 435.6 741.567 435.6C732.867 435.6 726.467 430 722.367 418.8C719.767 411.9 718.467 404.3 718.467 396C718.467 387.7 720.417 380.55 724.317 374.55C728.217 368.55 734.367 365.55 742.767 365.55ZM743.517 375.9C739.717 375.9 736.467 378.05 733.767 382.35C732.767 383.85 731.817 387.25 730.917 392.55C744.917 392.55 751.917 389.1 751.917 382.2C751.917 378 749.117 375.9 743.517 375.9ZM809.132 434.85C805.732 434.85 802.582 433.7 799.682 431.4C799.682 431.4 799.032 430.85 797.732 429.75V474.75C797.132 476.75 796.082 478.4 794.582 479.7C793.082 481.1 791.482 481.8 789.782 481.8C787.182 481.8 785.882 480.05 785.882 476.55V372C786.482 369.4 787.182 367.55 787.982 366.45C788.882 365.35 790.232 364.8 792.032 364.8C793.932 364.8 795.132 365.25 795.632 366.15C796.232 366.95 796.932 369.25 797.732 373.05C798.132 371.05 799.732 369.2 802.532 367.5C805.332 365.8 809.082 364.95 813.782 364.95C823.982 364.95 831.232 368.65 835.532 376.05C839.832 383.45 841.982 392.2 841.982 402.3C841.982 412.3 839.032 420.25 833.132 426.15C827.332 431.95 819.332 434.85 809.132 434.85ZM797.732 389.85V417.75C798.332 418.05 799.032 418.55 799.832 419.25C802.732 421.85 805.882 423.15 809.282 423.15C823.082 423.15 829.982 416.05 829.982 401.85C829.982 389.75 826.882 382.1 820.682 378.9C818.082 377.5 814.882 376.8 811.082 376.8C807.382 377.3 804.232 378.95 801.632 381.75C799.032 384.45 797.732 387.15 797.732 389.85ZM880.643 365.1C887.843 365.1 893.743 368.55 898.343 375.45C903.043 382.35 905.393 390.65 905.393 400.35C905.393 409.95 902.993 418.15 898.193 424.95C893.493 431.75 887.193 435.15 879.293 435.15C871.493 435.15 865.193 431.7 860.393 424.8C855.593 417.8 853.193 410.05 853.193 401.55C853.193 390.65 855.393 381.95 859.793 375.45C864.493 368.55 871.443 365.1 880.643 365.1ZM878.843 377.4C874.643 377.4 871.193 379.6 868.493 384C865.793 388.4 864.443 393.05 864.443 397.95C864.443 405.55 865.943 411.35 868.943 415.35C871.943 419.35 875.343 421.35 879.143 421.35C885.943 421.35 890.293 418.4 892.193 412.5C892.993 409.7 893.393 406.2 893.393 402C893.393 385.6 888.543 377.4 878.843 377.4ZM938.441 413.1L938.591 428.55C938.591 430.35 937.741 432 936.041 433.5C934.441 435 932.841 435.75 931.241 435.75C928.941 435.75 927.491 433.95 926.891 430.35C926.791 429.55 926.391 422.25 925.691 408.45C924.991 394.55 923.641 383.65 921.641 375.75C920.741 371.95 920.291 369.7 920.291 369C920.291 365.7 922.291 364.05 926.291 364.05C927.991 364.05 929.341 364.7 930.341 366C931.341 367.3 931.941 368.65 932.141 370.05C932.441 371.35 932.691 373.15 932.891 375.45C933.091 377.75 933.241 379.2 933.341 379.8C935.441 374.8 938.591 371.05 942.791 368.55C946.991 366.05 951.591 364.8 956.591 364.8C964.791 364.8 968.891 366.9 968.891 371.1C968.891 373.2 968.141 374.9 966.641 376.2C965.241 377.4 963.591 378 961.691 378C953.191 378 947.191 380.7 943.691 386.1C940.191 391.5 938.441 400.5 938.441 413.1ZM985.055 364.95L992.555 365.1C994.255 365.1 995.205 365.05 995.405 364.95V334.2C995.505 332.5 996.355 331.05 997.955 329.85C999.555 328.65 1001.06 328.05 1002.46 328.05C1003.86 328.05 1004.96 328.5 1005.76 329.4C1006.66 330.3 1007.06 331.7 1006.96 333.6C1006.86 335.5 1006.81 345.9 1006.81 364.8L1024.36 364.2C1027.36 364.2 1028.86 365.95 1028.86 369.45C1028.86 372.05 1028.06 374 1026.46 375.3C1024.96 376.6 1023.31 377.3 1021.51 377.4C1019.81 377.5 1018.11 377.55 1016.41 377.55L1007.26 377.4C1007.26 381.5 1007.66 389.6 1008.46 401.7C1009.36 413.8 1010.06 421.65 1010.56 425.25C1011.06 428.75 1011.16 431.05 1010.86 432.15C1010.56 433.15 1010.01 433.85 1009.21 434.25C1007.91 434.85 1006.16 435.15 1003.96 435.15C1001.76 435.15 1000.46 433.95 1000.06 431.55C998.055 418.45 996.705 400.45 996.005 377.55C995.105 377.65 991.655 377.7 985.655 377.7C979.655 377.7 976.655 375.95 976.655 372.45C976.655 367.45 979.455 364.95 985.055 364.95ZM1057.77 330C1059.37 328.8 1060.72 328.15 1061.82 328.05C1063.02 327.85 1065.67 327.75 1069.77 327.75C1073.97 327.75 1077.42 328.35 1080.12 329.55C1082.82 330.75 1084.17 333.15 1084.17 336.75C1084.17 340.35 1082.72 342.15 1079.82 342.15C1079.22 342.15 1077.52 341.65 1074.72 340.65C1071.92 339.55 1070.12 339 1069.32 339C1065.82 339 1063.72 341.1 1063.02 345.3C1062.82 346.8 1062.72 349.9 1062.72 354.6C1062.72 359.2 1062.72 363 1062.72 366H1073.22C1077.62 366.2 1079.82 367.75 1079.82 370.65C1079.82 374.85 1076.82 377.05 1070.82 377.25C1069.92 377.35 1068.82 377.4 1067.52 377.4C1066.22 377.4 1064.72 377.35 1063.02 377.25C1063.22 381.25 1063.67 388.4 1064.37 398.7C1065.07 408.9 1065.42 418.85 1065.42 428.55C1065.42 430.55 1064.62 432.15 1063.02 433.35C1061.42 434.55 1059.77 435.15 1058.07 435.15C1055.37 435.15 1054.02 433.55 1054.02 430.35C1054.02 421.35 1053.67 412.6 1052.97 404.1C1052.27 395.6 1051.77 386.65 1051.47 377.25C1042.47 377.25 1037.22 376.35 1035.72 374.55C1035.12 373.85 1034.82 372.95 1034.82 371.85C1034.82 369.25 1035.87 367.55 1037.97 366.75C1040.17 365.95 1042.67 365.55 1045.47 365.55C1048.27 365.55 1050.27 365.55 1051.47 365.55C1051.77 349.25 1052.67 339.15 1054.17 335.25C1055.07 332.85 1056.27 331.1 1057.77 330ZM1122.32 365.1C1129.52 365.1 1135.42 368.55 1140.02 375.45C1144.72 382.35 1147.07 390.65 1147.07 400.35C1147.07 409.95 1144.67 418.15 1139.87 424.95C1135.17 431.75 1128.87 435.15 1120.97 435.15C1113.17 435.15 1106.87 431.7 1102.07 424.8C1097.27 417.8 1094.87 410.05 1094.87 401.55C1094.87 390.65 1097.07 381.95 1101.47 375.45C1106.17 368.55 1113.12 365.1 1122.32 365.1ZM1120.52 377.4C1116.32 377.4 1112.87 379.6 1110.17 384C1107.47 388.4 1106.12 393.05 1106.12 397.95C1106.12 405.55 1107.62 411.35 1110.62 415.35C1113.62 419.35 1117.02 421.35 1120.82 421.35C1127.62 421.35 1131.97 418.4 1133.87 412.5C1134.67 409.7 1135.07 406.2 1135.07 402C1135.07 385.6 1130.22 377.4 1120.52 377.4ZM1160.32 337.95C1160.62 334.15 1161.22 331.7 1162.12 330.6C1163.12 329.4 1164.67 328.8 1166.77 328.8C1171.07 328.8 1173.22 330.55 1173.22 334.05C1173.22 336.75 1172.97 343.8 1172.47 355.2C1172.07 366.6 1171.87 376.8 1171.87 385.8C1171.87 394.8 1172.22 402.05 1172.92 407.55C1174.12 417.15 1175.82 421.95 1178.02 421.95C1180.22 421.95 1181.87 420.4 1182.97 417.3C1183.47 416.1 1184.27 415.05 1185.37 414.15C1186.47 413.15 1187.87 412.65 1189.57 412.65C1193.07 412.65 1194.82 415.6 1194.82 421.5C1194.82 424.7 1193.07 427.9 1189.57 431.1C1186.17 434.2 1182.77 435.75 1179.37 435.75C1175.97 435.75 1173.22 435.2 1171.12 434.1C1169.12 432.9 1167.47 431.15 1166.17 428.85C1164.97 426.55 1163.97 424.35 1163.17 422.25C1162.47 420.05 1161.97 417.4 1161.67 414.3C1161.07 409.3 1160.62 401.3 1160.32 390.3C1160.12 379.2 1160.02 368.65 1160.02 358.65C1160.02 348.55 1160.12 341.65 1160.32 337.95ZM1215.02 340.2C1216.82 340.2 1218.52 341.05 1220.12 342.75C1221.72 344.45 1222.52 346.25 1222.52 348.15C1222.52 349.95 1221.62 351.8 1219.82 353.7C1218.12 355.6 1216.32 356.55 1214.42 356.55C1212.52 356.55 1210.77 355.75 1209.17 354.15C1207.67 352.55 1206.92 350.5 1206.92 348C1206.92 343.2 1209.52 340.6 1214.72 340.2C1214.82 340.2 1214.92 340.2 1215.02 340.2ZM1221.32 418.8L1221.47 429.3C1221.47 431.2 1220.72 432.8 1219.22 434.1C1217.72 435.3 1216.12 435.9 1214.42 435.9C1211.92 435.9 1210.62 434.65 1210.52 432.15C1209.22 400.25 1208.57 382.6 1208.57 379.2C1208.57 375.8 1208.72 371.65 1209.02 366.75C1209.22 364.95 1210.37 364.05 1212.47 364.05C1217.77 364.05 1220.77 366.2 1221.47 370.5C1221.77 372.7 1221.92 374.45 1221.92 375.75L1221.32 385.2V418.8ZM1269.71 365.1C1276.91 365.1 1282.81 368.55 1287.41 375.45C1292.11 382.35 1294.46 390.65 1294.46 400.35C1294.46 409.95 1292.06 418.15 1287.26 424.95C1282.56 431.75 1276.26 435.15 1268.36 435.15C1260.56 435.15 1254.26 431.7 1249.46 424.8C1244.66 417.8 1242.26 410.05 1242.26 401.55C1242.26 390.65 1244.46 381.95 1248.86 375.45C1253.56 368.55 1260.51 365.1 1269.71 365.1ZM1267.91 377.4C1263.71 377.4 1260.26 379.6 1257.56 384C1254.86 388.4 1253.51 393.05 1253.51 397.95C1253.51 405.55 1255.01 411.35 1258.01 415.35C1261.01 419.35 1264.41 421.35 1268.21 421.35C1275.01 421.35 1279.36 418.4 1281.26 412.5C1282.06 409.7 1282.46 406.2 1282.46 402C1282.46 385.6 1277.61 377.4 1267.91 377.4Z" fill="black"/>
</svg>
