<svg width="54" height="51" viewBox="0 0 54 51" fill="none" xmlns="http://www.w3.org/2000/svg">
<path fill-rule="evenodd" clip-rule="evenodd" d="M13.608 8.10938C9.75375 9.16317 6.75 12.3788 6.75 18.0623C6.75 25.5089 12.1512 33.5474 26.0144 41.6175C26.6213 41.9708 27.3787 41.9708 27.9856 41.6175C41.8488 33.5472 47.25 25.5051 47.25 18.0623C47.25 12.3788 44.2496 9.16317 40.392 8.1055C36.2813 6.98198 31.8769 8.50455 29.7034 11.8441C29.3891 12.3268 28.9812 12.7186 28.5119 12.9885C28.0426 13.2584 27.5249 13.399 27 13.399C26.4751 13.399 25.9574 13.2584 25.4881 12.9885C25.0188 12.7186 24.6109 12.3268 24.2966 11.8441C22.1231 8.50455 17.7154 6.98198 13.608 8.10938ZM28.4052 2.91398C27.5702 3.50535 26.4299 3.5053 25.5951 2.91366C21.5524 0.0484315 16.4634 -0.640772 12.042 0.570141C5.66325 2.32129 0 8.21398 0 18.0623C0 30.9479 9.72 41.3696 25.5521 49.9858C26.0041 50.2319 26.4981 50.3596 26.9983 50.3596C27.4985 50.3596 27.9925 50.2319 28.4445 49.9858C44.28 41.3735 54 30.9518 54 18.0661C54 8.21785 48.3368 2.32129 41.958 0.574015C37.537 -0.636786 32.4459 0.0521792 28.4052 2.91398Z" fill="#783B54"/>
</svg>
