<svg width="209" height="57" viewBox="0 0 209 57" fill="none" xmlns="http://www.w3.org/2000/svg">
<path d="M1 15C1 7.26801 7.26801 1 15 1H194C201.732 1 208 7.26801 208 15V42C208 49.732 201.732 56 194 56H15C7.26801 56 1 49.732 1 42V15Z" fill="#FEFCF5" stroke="#783B54" stroke-width="2"/>
<path d="M12 39L197.503 39.0006" stroke="#B8889C" stroke-width="2.02261" stroke-linecap="round"/>
<path d="M81.6364 23.5894C82.6477 23.5894 83.5073 23.9145 84.2151 24.5646C85.602 25.807 86.2955 27.7718 86.2955 30.4588C86.2955 33.1315 85.5298 35.2335 83.9985 36.7648C83.2039 37.5305 82.2865 37.9494 81.2464 38.0217C79.8739 38.0217 78.8049 37.5522 78.0392 36.6131C77.2735 35.6741 76.7246 34.6267 76.3923 33.471C76.0745 32.3008 75.9155 31.1739 75.9155 30.0904C75.9155 28.2413 76.3562 26.7172 77.2374 25.5181C78.162 24.2323 79.6283 23.5894 81.6364 23.5894ZM81.4847 25.3881C79.5489 25.3881 78.3426 26.3054 77.8658 28.1401C77.7214 28.6313 77.6491 29.2598 77.6491 30.0254C77.6491 30.7911 77.7936 31.6796 78.0825 32.6908C78.4726 34.0488 79.0505 35.0023 79.8161 35.5513C80.264 35.898 80.8057 36.0714 81.4414 36.0714C82.077 36.0714 82.6477 35.7897 83.1533 35.2262C83.659 34.6484 84.0057 33.9188 84.1935 33.0376C84.3813 32.1563 84.4752 31.2679 84.4752 30.3722C84.4752 28.783 84.244 27.5551 83.7818 26.6883C83.3339 25.8215 82.5682 25.3881 81.4847 25.3881ZM89.1053 38.0217C88.7297 38.0217 88.5058 37.8122 88.4335 37.3932C88.4335 34.475 88.2602 31.8746 87.9134 29.592C87.9134 29.3031 88.0146 29.0431 88.2168 28.8119C88.4335 28.5808 88.6719 28.4652 88.9319 28.4652C89.2064 28.4652 89.4087 28.6169 89.5387 28.9203C90.0732 28.2124 90.7883 27.8584 91.684 27.8584C92.8253 27.8584 93.7066 28.4074 94.3278 29.5054C95.0501 28.4652 96.0036 27.9451 97.1882 27.9451C98.3873 27.9451 99.283 28.4219 99.8753 29.3753C100.265 29.9677 100.54 30.7478 100.699 31.7157C100.858 32.6836 100.937 34.0561 100.937 35.833C100.937 36.5264 100.865 37.0682 100.72 37.4582C100.576 37.8339 100.273 38.0217 99.8103 38.0217C99.4347 38.0217 99.2469 37.7833 99.2469 37.3066L99.3119 34.5978C99.3119 31.3473 98.4667 29.7221 96.7765 29.7221C96.2419 29.7221 95.8663 29.9099 95.6496 30.2855C95.404 30.7333 95.2596 31.2028 95.2162 31.694C95.1584 32.5608 95.1296 33.3482 95.1296 34.0561V37.1982C95.1296 37.4294 95.014 37.6244 94.7828 37.7833C94.5517 37.9422 94.3133 38.0217 94.0677 38.0217C93.7499 38.0217 93.5476 37.8122 93.461 37.3932L93.526 32.9075C93.526 31.3184 93.2587 30.3288 92.7242 29.9388C92.4641 29.751 92.0669 29.657 91.5323 29.657C91.0123 29.657 90.6222 29.8521 90.3622 30.2421C90.1166 30.6322 89.9938 31.2606 89.9938 32.1274L90.1238 36.158C90.1238 37.4005 89.7843 38.0217 89.1053 38.0217ZM108.828 38.0217C108.453 38.0217 108.229 37.8122 108.157 37.3932C108.157 34.475 107.983 31.8746 107.637 29.592C107.637 29.3031 107.738 29.0431 107.94 28.8119C108.157 28.5808 108.395 28.4652 108.655 28.4652C108.93 28.4652 109.132 28.6169 109.262 28.9203C109.796 28.2124 110.511 27.8584 111.407 27.8584C112.548 27.8584 113.43 28.4074 114.051 29.5054C114.773 28.4652 115.727 27.9451 116.911 27.9451C118.11 27.9451 119.006 28.4219 119.598 29.3753C119.988 29.9677 120.263 30.7478 120.422 31.7157C120.581 32.6836 120.66 34.0561 120.66 35.833C120.66 36.5264 120.588 37.0682 120.444 37.4582C120.299 37.8339 119.996 38.0217 119.533 38.0217C119.158 38.0217 118.97 37.7833 118.97 37.3066L119.035 34.5978C119.035 31.3473 118.19 29.7221 116.5 29.7221C115.965 29.7221 115.589 29.9099 115.373 30.2855C115.127 30.7333 114.983 31.2028 114.939 31.694C114.882 32.5608 114.853 33.3482 114.853 34.0561V37.1982C114.853 37.4294 114.737 37.6244 114.506 37.7833C114.275 37.9422 114.036 38.0217 113.791 38.0217C113.473 38.0217 113.271 37.8122 113.184 37.3932L113.249 32.9075C113.249 31.3184 112.982 30.3288 112.447 29.9388C112.187 29.751 111.79 29.657 111.255 29.657C110.735 29.657 110.345 29.8521 110.085 30.2421C109.84 30.6322 109.717 31.2606 109.717 32.1274L109.847 36.158C109.847 37.4005 109.507 38.0217 108.828 38.0217ZM123.752 24.3046C124.012 24.3046 124.258 24.4274 124.489 24.6729C124.72 24.9185 124.836 25.1786 124.836 25.4531C124.836 25.7131 124.706 25.9804 124.446 26.2549C124.2 26.5293 123.94 26.6666 123.666 26.6666C123.391 26.6666 123.138 26.551 122.907 26.3199C122.69 26.0887 122.582 25.7926 122.582 25.4314C122.582 24.738 122.958 24.3623 123.709 24.3046C123.723 24.3046 123.738 24.3046 123.752 24.3046ZM124.662 35.6596L124.684 37.1765C124.684 37.451 124.576 37.6822 124.359 37.87C124.142 38.0433 123.911 38.13 123.666 38.13C123.304 38.13 123.117 37.9494 123.102 37.5883C122.914 32.9798 122.82 30.4299 122.82 29.9388C122.82 29.4476 122.842 28.848 122.885 28.1401C122.914 27.8801 123.08 27.7501 123.384 27.7501C124.15 27.7501 124.583 28.0607 124.684 28.6819C124.727 28.9997 124.749 29.2525 124.749 29.4403L124.662 30.8056V35.6596ZM133.387 37.1115C132.867 37.7183 132.21 38.0217 131.415 38.0217C130.621 38.0217 129.935 37.7761 129.357 37.2849C128.143 36.3459 127.537 34.9084 127.537 32.9726C127.537 31.4557 127.955 30.2421 128.793 29.332C129.631 28.4074 130.664 27.9451 131.892 27.9451C133.12 27.9451 133.958 28.3641 134.406 29.202C134.796 29.9388 134.991 31.0512 134.991 32.5392L134.948 34.3161C134.948 35.154 134.984 36.317 135.056 37.805C135.143 39.2785 135.186 40.3909 135.186 41.1422C135.186 42.3846 134.875 43.2947 134.254 43.8726C133.647 44.4649 132.716 44.761 131.459 44.761C130.708 44.761 129.942 44.6021 129.162 44.2843C128.382 43.9665 127.992 43.5981 127.992 43.1791C127.992 42.8758 128.071 42.6446 128.23 42.4857C128.403 42.3268 128.598 42.2473 128.815 42.2473C129.032 42.2473 129.516 42.4062 130.267 42.7241C131.033 43.0419 131.582 43.2008 131.914 43.2008C132.954 43.2008 133.474 42.3484 133.474 40.6437C133.474 38.939 133.445 37.7616 133.387 37.1115ZM133.366 32.5392C133.366 31.4846 133.207 30.7478 132.889 30.3288C132.586 29.8954 132.102 29.6787 131.437 29.6787C130.773 29.6787 130.238 29.9821 129.834 30.5889C129.429 31.1956 129.227 31.9685 129.227 32.9075C129.227 33.8321 129.415 34.5689 129.79 35.1179C130.18 35.6669 130.773 35.9413 131.567 35.9413C132.362 35.9413 132.875 35.6019 133.106 34.9229C133.279 34.3739 133.366 33.5793 133.366 32.5392Z" fill="black"/>
</svg>
