<svg width="87" height="87" viewBox="0 0 87 87" fill="none" xmlns="http://www.w3.org/2000/svg">
<path d="M28.6667 19.3333C28.6667 15.3993 30.2295 11.6264 33.0112 8.84458C35.793 6.06279 39.566 4.5 43.5 4.5C47.434 4.5 51.207 6.06279 53.9888 8.84458C56.7705 11.6264 58.3333 15.3993 58.3333 19.3333C58.3333 23.2674 56.7705 27.0403 53.9888 29.8221C51.207 32.6039 47.434 34.1667 43.5 34.1667C39.566 34.1667 35.793 32.6039 33.0112 29.8221C30.2295 27.0403 28.6667 23.2674 28.6667 19.3333ZM10.2602 58.5936C13.9484 54.9054 18.9507 52.8333 24.1667 52.8333H62.8333C68.0493 52.8333 73.0516 54.9054 76.7398 58.5936C80.428 62.2818 82.5 67.2841 82.5 72.5C82.5 75.1522 81.4464 77.6957 79.5711 79.5711C77.6957 81.4464 75.1522 82.5 72.5 82.5H14.5C11.8478 82.5 9.30429 81.4464 7.42893 79.5711C5.55357 77.6957 4.5 75.1522 4.5 72.5C4.5 67.2841 6.57202 62.2818 10.2602 58.5936Z" stroke="#783B54" stroke-width="9"/>
</svg>
