<svg width="87" height="87" viewBox="0 0 87 87" fill="none" xmlns="http://www.w3.org/2000/svg">
<path fill-rule="evenodd" clip-rule="evenodd" d="M80.1405 76.9791C81.423 76.9805 82.6566 77.4695 83.5891 78.3462C84.5217 79.2229 85.0829 80.421 85.158 81.6959C85.2332 82.9708 84.8167 84.2261 83.9935 85.2054C83.1704 86.1847 82.0028 86.8141 80.7292 86.9649L80.1405 87H44.9184C43.636 86.9986 42.4024 86.5096 41.4698 85.6329C40.5373 84.7562 39.9761 83.5581 39.9009 82.2832C39.8258 81.0083 40.2423 79.753 41.0655 78.7737C41.8886 77.7944 43.0562 77.165 44.3297 77.0142L44.9184 76.9791H80.1405ZM65.5284 3.66618C67.8328 1.37291 70.9408 0.0593325 74.1982 0.00196115C77.4556 -0.0554102 80.6083 1.1479 82.9927 3.35859C85.3771 5.56929 86.8072 8.61492 86.9819 11.8544C87.1566 15.0939 86.0623 18.2745 83.9294 20.7268L83.3156 21.3781L28.4898 75.977C28.0107 76.4547 27.4691 76.8659 26.8797 77.1996L26.2759 77.5002L7.1352 86.1683C3.06956 88.0071 -1.10677 84.0789 0.266888 80.0305L0.468157 79.5294L9.17305 60.4647C9.45208 59.8516 9.81255 59.2786 10.2448 58.7611L10.6977 58.2601L65.5284 3.66618ZM76.2007 10.751C75.7838 10.3367 75.2341 10.0813 74.6475 10.0291C74.0609 9.97688 73.4745 10.1313 72.9904 10.4654L72.6433 10.751L18.3972 64.7676C18.2269 64.9373 18.0885 65.1362 17.9887 65.355L17.3897 66.6685C16.6228 68.3501 18.3518 70.083 20.0352 69.3199L21.3678 68.7158C21.5855 68.6171 21.7838 68.4802 21.9532 68.3115L76.2007 14.2984C76.435 14.0656 76.6209 13.7892 76.7477 13.4848C76.8745 13.1805 76.9398 12.8542 76.9398 12.5247C76.9398 12.1951 76.8745 11.8689 76.7477 11.5645C76.6209 11.2601 76.435 10.9837 76.2007 10.751Z" fill="#783B54"/>
</svg>
