<svg width="14" height="11" viewBox="0 0 14 11" fill="none" xmlns="http://www.w3.org/2000/svg">
<path d="M9.49615 9.25577C8.30869 11.037 5.69132 11.037 4.50385 9.25577L0.718229 3.57734C0.283322 2.92498 0.283414 2.07508 0.718463 1.42281C1.48725 0.270176 3.1812 0.270451 3.94961 1.42334L4.6668 2.49938C5.77663 4.16452 8.22337 4.16452 9.3332 2.49938L10.0504 1.42334C10.8188 0.270452 12.5127 0.270176 13.2815 1.42281C13.7166 2.07508 13.7167 2.92498 13.2818 3.57734L9.49615 9.25577Z" fill="#B8889C"/>
<path d="M9.49615 9.25577C8.30869 11.037 5.69132 11.037 4.50385 9.25577L0.718229 3.57734C0.283322 2.92498 0.283414 2.07508 0.718463 1.42281C1.48725 0.270176 3.1812 0.270451 3.94961 1.42334L4.6668 2.49938C5.77663 4.16452 8.22337 4.16452 9.3332 2.49938L10.0504 1.42334C10.8188 0.270452 12.5127 0.270176 13.2815 1.42281C13.7166 2.07508 13.7167 2.92498 13.2818 3.57734L9.49615 9.25577Z" fill="#6BA26D"/>
<path d="M9.49615 9.25577C8.30869 11.037 5.69132 11.037 4.50385 9.25577L0.718229 3.57734C0.283322 2.92498 0.283414 2.07508 0.718463 1.42281C1.48725 0.270176 3.1812 0.270451 3.94961 1.42334L4.6668 2.49938C5.77663 4.16452 8.22337 4.16452 9.3332 2.49938L10.0504 1.42334C10.8188 0.270452 12.5127 0.270176 13.2815 1.42281C13.7166 2.07508 13.7167 2.92498 13.2818 3.57734L9.49615 9.25577Z" fill="#783B54"/>
</svg>
